# 3ds Max Wavefront OBJ Exporter v0.97b - (c)2007 guruware
# File Created: 26.04.2017 16:00:31

mtllib Navigator.mtl

#
# object Plane001
#

v  -55.2407 0.2837 0.5912
v  -56.3051 -34.3542 0.5912
v  -40.0443 -59.6892 0.5912
v  -7.4043 -56.5125 11.7419
v  -7.4052 0.2837 7.5644
v  -7.3465 0.2837 7.5644
v  -7.3475 -56.5125 11.7419
v  25.2925 -59.6892 0.5912
v  41.5533 -34.3541 0.5912
v  41.5533 0.2837 0.5912
v  -18.6510 58.1457 -5.2834
v  -7.4059 58.1457 -5.2834
v  -7.3459 58.1457 -5.2834
v  4.9636 58.1457 -5.2834
v  -67.9495 1.9323 -24.6453
v  -67.9495 -40.9487 -24.6453
v  -47.8189 -67.6055 -24.6453
v  -7.4059 -67.6055 -24.6453
v  53.1977 -40.9487 -24.6453
v  53.1977 1.9323 -24.6453
v  -7.3459 -67.6055 -24.6453
v  33.0671 -67.6055 -24.6453
v  -22.6520 71.4702 -24.6453
v  -7.4059 71.4702 -24.6453
v  7.9002 71.4702 -24.6453
v  -7.3459 71.4702 -24.6453
v  -81.8864 -9.7006 -24.6453
v  -81.8864 -58.1782 -24.6453
v  -78.4714 -59.0966 -24.6453
v  -34.0112 -79.1375 -24.6453
v  -7.4059 -79.1375 -24.6453
v  63.7196 -59.0966 -24.6453
v  67.1346 -58.1782 -24.6453
v  67.1346 -9.7006 -24.6453
v  -7.3459 -79.1375 -24.6453
v  19.2594 -79.1375 -24.6453
v  -11.8252 98.1176 -24.6453
v  -7.4030 100.2115 -24.6453
v  -2.9266 98.1176 -24.6453
v  -7.3488 100.2115 -24.6453
v  -75.3571 -66.9166 -24.6453
v  60.6054 -66.9166 -24.6453
v  -81.8864 -9.7006 -26.1974
v  -81.8864 -58.1782 -26.1974
v  -34.0112 -79.1375 -26.1974
v  -7.4059 -79.1375 -26.1974
v  67.1346 -58.1782 -26.1974
v  67.1346 -9.7006 -26.1974
v  -7.3459 -79.1375 -26.1974
v  19.2594 -79.1375 -26.1974
v  -11.8252 98.1176 -26.1974
v  -7.4030 100.2115 -26.1974
v  -2.9266 98.1176 -26.1974
v  -7.3488 100.2115 -26.1974
v  -75.3571 -66.9166 -26.1974
v  60.6054 -66.9166 -26.1974
v  -55.2408 -16.4194 -51.8301
v  -7.4052 -26.8773 -51.8301
v  -7.4043 -59.6892 -51.8301
v  -40.0443 -59.6892 -51.8301
v  -56.3051 -41.7415 -51.8301
v  -7.3465 -26.8773 -51.8301
v  41.5533 -16.4194 -51.8301
v  41.5533 -41.7415 -51.8301
v  25.2925 -59.6892 -51.8301
v  -7.3475 -59.6892 -51.8301
v  -24.2585 29.9842 -46.2159
v  -7.3986 28.5211 -47.4445
v  -7.3403 28.5211 -47.4445
v  10.5575 29.9853 -46.2158
v  -67.9495 -48.3361 -28.5566
v  -67.9495 -2.0252 -28.5566
v  -7.4059 -67.6055 -28.5566
v  -47.8189 -67.6055 -28.5566
v  53.1977 -2.0252 -28.5566
v  53.1977 -48.3361 -28.5566
v  33.0671 -67.6055 -28.5566
v  -7.3459 -67.6055 -28.5566
v  -9.8828 52.2034 -28.5566
v  -14.9668 44.1742 -38.4244
v  -7.3808 52.2034 -28.5566
v  -7.3905 44.4502 -38.0745
v  -7.3524 44.4502 -38.0745
v  -7.3710 52.2034 -28.5566
v  -4.8690 52.2034 -28.5566
v  0.8944 44.1079 -38.5085
v  -78.4714 -59.0966 -28.5566
v  -81.8864 -58.1782 -28.5566
v  -81.8864 -9.7006 -28.5566
v  -7.4059 -79.1375 -28.5566
v  -34.0112 -79.1375 -28.5566
v  67.1346 -9.7006 -28.5566
v  67.1346 -58.1782 -28.5566
v  63.7196 -59.0966 -28.5566
v  19.2594 -79.1375 -28.5566
v  -7.3459 -79.1375 -28.5566
v  -11.8252 98.1176 -28.5566
v  -7.4030 100.2115 -28.5566
v  -7.3488 100.2115 -28.5566
v  -2.9266 98.1176 -28.5566
v  -75.3571 -66.9166 -28.5566
v  60.6054 -66.9166 -28.5566
v  -81.8864 -58.1782 -27.0045
v  -81.8864 -9.7006 -27.0045
v  -7.4059 -79.1375 -27.0045
v  -34.0112 -79.1375 -27.0045
v  67.1346 -9.7006 -27.0045
v  67.1346 -58.1782 -27.0045
v  19.2594 -79.1375 -27.0045
v  -7.3459 -79.1375 -27.0045
v  -11.8252 98.1176 -27.0045
v  -7.4030 100.2115 -27.0045
v  -7.3488 100.2115 -27.0045
v  -2.9266 98.1176 -27.0045
v  -75.3571 -66.9166 -27.0045
v  60.6054 -66.9166 -27.0045
# 116 vertices

vn -0.1218 0.0607 0.9907
vn -0.0000 -0.0000 1.0000
vn -0.2111 0.0197 0.9773
vn -0.1701 0.0723 0.9828
vn -0.0875 0.1262 0.9881
vn 0.0655 0.1386 0.9882
vn 0.1101 0.0210 0.9937
vn 0.3004 -0.1928 0.9341
vn 0.2415 -0.0453 0.9693
vn 0.1632 0.0978 0.9817
vn 0.0000 0.1010 0.9949
vn -0.0313 0.1844 0.9823
vn 0.0000 0.2168 0.9762
vn 0.0503 0.2063 0.9772
vn -0.9024 0.0101 0.4308
vn -0.8921 0.0274 0.4510
vn -0.8992 0.0156 0.4373
vn -0.9080 0.0000 0.4190
vn -0.0015 -0.9561 0.2932
vn -0.0105 -0.9532 0.3022
vn -0.0043 -0.9552 0.2960
vn 0.0000 -0.9565 0.2916
vn 0.9080 0.0000 0.4190
vn 0.9080 -0.0000 0.4190
vn 0.0030 -0.9553 0.2957
vn 0.0029 -0.9565 0.2916
vn 0.0018 -0.9560 0.2933
vn 0.0000 -0.9542 0.2993
vn -0.7547 0.4972 0.4281
vn -0.7126 0.5005 0.4917
vn -0.7275 0.4997 0.4701
vn -0.7619 0.4963 0.4161
vn 0.0000 0.8238 0.5669
vn 0.7513 0.4938 0.4379
vn 0.7617 0.5208 0.3855
vn 0.7593 0.5142 0.3988
vn 0.7486 0.4877 0.4491
vn -0.7381 -0.5195 0.4304
vn -0.7438 -0.4774 0.4679
vn -0.7391 -0.5136 0.4359
vn -0.7318 -0.5526 0.3988
vn 0.7368 -0.5179 0.4347
vn 0.7735 -0.4964 0.3940
vn 0.7420 -0.5151 0.4291
vn 0.7064 -0.5334 0.4653
vn -0.0000 0.0000 1.0000
vn 0.0000 -0.0000 1.0000
vn 0.0000 0.0000 1.0000
vn -1.0000 0.0000 0.0000
vn 0.0000 -1.0000 0.0000
vn -0.1432 -0.9897 0.0000
vn 1.0000 0.0000 0.0000
vn 0.1432 -0.9897 0.0000
vn -0.8385 0.5449 0.0000
vn -0.4279 0.9038 0.0000
vn -0.2193 0.9757 0.0000
vn 0.2193 0.9757 0.0000
vn 0.4279 0.9038 0.0000
vn 0.8385 0.5449 0.0000
vn -0.2835 -0.9590 0.0000
vn 0.2835 -0.9590 0.0000
vn -0.8011 -0.5986 0.0000
vn 0.8011 -0.5986 0.0000
vn 0.0000 -0.0000 -1.0000
vn -0.0000 0.0000 -1.0000
vn 0.0000 0.0000 -1.0000
vn -0.0000 -0.0000 -1.0000
vn 0.0013 0.0435 -0.9991
vn 0.0037 0.0368 -0.9993
vn -0.0008 0.0413 -0.9991
vn -0.0105 0.0493 -0.9987
vn -0.0410 0.2850 -0.9576
vn -0.0103 0.3039 -0.9527
vn 0.0184 0.2908 -0.9566
vn 0.0241 0.2364 -0.9714
vn -0.8860 0.0119 -0.4636
vn -0.8943 0.0000 -0.4474
vn -0.8824 0.0168 -0.4701
vn -0.8674 0.0365 -0.4962
vn -0.0000 -0.9467 -0.3220
vn 0.0000 -0.9467 -0.3220
vn 0.8943 0.0000 -0.4474
vn -0.5808 0.5782 -0.5730
vn -0.5266 0.5638 -0.6363
vn -0.7501 0.5943 -0.2901
vn -0.8296 0.5577 -0.0264
vn -0.8299 0.5573 -0.0255
vn 0.0161 0.5854 -0.8106
vn 0.0000 0.7757 -0.6311
vn 0.0002 0.7754 -0.6314
vn 0.0005 0.6501 -0.7598
vn -0.0062 0.6543 -0.7562
vn -0.0000 0.7753 -0.6316
vn -0.0003 0.7754 -0.6315
vn -0.0035 0.5998 -0.8001
vn 0.8329 0.5525 0.0319
vn 0.6838 0.6885 -0.2417
vn 0.6694 0.7168 -0.1954
vn 0.5959 0.5493 -0.5858
vn 0.6066 0.5366 -0.5866
vn -0.6356 -0.6204 -0.4595
vn -0.6242 -0.6521 -0.4303
vn -0.6355 -0.6209 -0.4591
vn -0.6463 -0.5856 -0.4893
vn 0.6366 -0.6207 -0.4577
vn 0.6057 -0.6328 -0.4824
vn 0.6362 -0.6209 -0.4580
vn 0.6692 -0.6063 -0.4297
# 108 vertex normals

vt 0.0000 0.5000 0.0000
vt 0.0000 0.2513 0.0000
vt 0.2347 0.0000 0.0000
vt 0.4998 0.0000 0.0000
vt 0.4997 0.5000 0.0000
vt 0.5003 0.5000 0.0000
vt 0.5002 0.0000 0.0000
vt 0.7653 0.0000 0.0000
vt 1.0000 0.2513 0.0000
vt 1.0000 0.5000 0.0000
vt 0.0000 1.0000 0.0000
vt 0.4988 1.0000 0.0000
vt 0.5012 1.0000 0.0000
vt 1.0000 1.0000 0.0000
vt 0.4990 1.0000 0.0000
vt 0.5010 1.0000 0.0000
vt 0.0000 0.2820 0.0000
vt 0.4997 0.0000 0.0000
vt 1.0000 0.2820 0.0000
vt 0.5003 0.0000 0.0000
vt 0.4970 1.0000 0.0000
vt 0.5030 1.0000 0.0000
vt 0.0320 0.2170 0.0000
vt 0.9680 0.2170 0.0000
vt 0.0000 0.9196 0.0000
vt 0.4989 0.9212 0.0000
vt 0.5011 0.9212 0.0000
vt 1.0000 0.9196 0.0000
vt 0.4989 1.0000 0.0000
vt 0.5011 1.0000 0.0000
# 30 texture coords

g Plane001
usemtl wire_113135006
s 1
f 1/1/1 2/2/2 3/3/3 4/4/4 5/5/5 
f 6/6/6 7/7/7 8/8/8 9/9/9 10/10/10 
f 11/11/11 1/1/1 5/5/5 12/12/12 
f 13/13/13 6/6/6 10/10/10 14/14/14 
s 2
f 2/2/15 1/1/16 15/1/17 16/2/18 
f 4/4/19 3/3/20 17/3/21 18/4/22 
f 10/10/23 9/9/24 19/9/23 20/10/23 
f 8/8/25 7/7/26 21/7/27 22/8/28 
s 4
f 1/1/29 11/11/30 23/11/31 15/1/32 
s 2
f 11/11/33 12/12/33 24/15/33 23/11/33 
f 13/13/33 14/14/33 25/14/33 26/16/33 
s 4
f 14/14/34 10/10/35 20/10/36 25/14/37 
f 3/3/38 2/2/39 16/2/40 17/3/41 
f 9/9/42 8/8/43 22/8/44 19/9/45 
s 1
f 16/2/46 15/1/47 27/1/46 28/17/48 29/2/46 
f 18/4/48 17/3/48 30/3/48 31/18/48 
f 20/10/2 19/9/48 32/9/48 33/19/48 34/10/48 
f 22/8/48 21/7/48 35/20/48 36/8/48 
f 15/1/47 23/11/46 37/11/46 27/1/46 
f 23/11/46 24/15/48 38/21/48 37/11/46 
f 26/16/48 25/14/48 39/14/48 40/22/48 
f 25/14/48 20/10/2 34/10/48 39/14/48 
f 17/3/48 16/2/46 29/2/46 41/23/48 30/3/48 
f 19/9/48 22/8/48 36/8/48 42/24/48 32/9/48 
f 41/23/48 29/2/46 28/17/48 
f 33/19/48 32/9/48 42/24/48 
f 4/4/4 7/7/7 6/6/6 5/5/5 
f 5/5/5 6/6/6 13/13/13 12/12/12 
s 2
f 7/7/26 4/4/19 18/4/22 21/7/27 
f 12/12/33 13/13/33 26/16/33 24/15/33 
s 1
f 21/7/48 18/4/48 31/18/48 35/20/48 
f 24/15/48 26/16/48 40/22/48 38/21/48 
s 2
f 28/17/49 27/1/49 43/1/49 44/17/49 
f 31/18/50 30/3/51 45/3/51 46/18/50 
f 34/10/52 33/19/52 47/19/52 48/10/52 
f 36/8/53 35/20/50 49/20/50 50/8/53 
s 4
f 27/1/54 37/11/54 51/11/54 43/1/54 
s 2
f 37/11/55 38/21/56 52/21/56 51/11/55 
f 40/22/57 39/14/58 53/14/58 54/22/57 
s 4
f 39/14/59 34/10/59 48/10/59 53/14/59 
s 2
f 30/3/51 41/23/60 55/23/60 45/3/51 
f 42/24/61 36/8/53 50/8/53 56/24/61 
s 4
f 41/23/62 28/17/62 44/17/62 55/23/62 
f 33/19/63 42/24/63 56/24/63 47/19/63 
s 2
f 35/20/50 31/18/50 46/18/50 49/20/50 
f 38/21/56 40/22/57 54/22/57 52/21/56 
s 1
f 43/1/64 51/11/65 52/21/66 54/22/66 53/14/65 48/10/67 47/19/64 56/24/64 50/8/64 49/20/65 46/18/66 45/3/66 55/23/64 44/17/64 
f 57/1/68 58/5/69 59/4/65 60/3/65 61/2/66 
f 62/6/70 63/10/71 64/9/64 65/8/64 66/7/66 
f 67/25/72 68/26/73 58/5/69 57/1/68 
f 69/27/74 70/28/75 63/10/71 62/6/70 
s 2
f 61/2/76 71/2/77 72/1/78 57/1/79 
f 59/4/80 73/4/81 74/3/80 60/3/80 
f 63/10/82 75/10/82 76/9/82 64/9/82 
f 65/8/81 77/8/81 78/7/81 66/7/81 
s 4
f 57/1/83 72/1/84 79/11/85 80/11/86 67/25/87 
s 1
f 80/11/88 79/11/89 81/15/90 82/29/91 
f 83/30/92 84/16/93 85/14/94 86/14/95 
s 4
f 70/28/96 86/14/97 85/14/98 75/10/99 63/10/100 
f 60/3/101 74/3/102 71/2/103 61/2/104 
f 64/9/105 76/9/106 77/8/107 65/8/108 
s 8
f 71/2/66 87/2/66 88/17/66 89/1/66 72/1/64 
f 73/4/66 90/18/66 91/3/66 74/3/66 
f 75/10/67 92/10/66 93/19/65 94/9/65 76/9/65 
f 77/8/65 95/8/66 96/20/66 78/7/66 
f 72/1/64 89/1/66 97/11/67 79/11/67 
f 79/11/67 97/11/67 98/21/66 81/15/66 
f 84/16/66 99/22/66 100/14/64 85/14/64 
f 85/14/64 100/14/64 92/10/66 75/10/67 
f 74/3/66 91/3/66 101/23/66 87/2/66 71/2/66 
f 76/9/65 94/9/65 102/24/66 95/8/66 77/8/65 
f 101/23/66 88/17/66 87/2/66 
f 93/19/65 102/24/66 94/9/65 
s 1
f 59/4/65 58/5/69 62/6/70 66/7/66 
f 58/5/69 68/26/73 69/27/74 62/6/70 
s 2
f 66/7/81 78/7/81 73/4/81 59/4/80 
s 1
f 82/29/91 81/15/90 84/16/93 83/30/92 
s 8
f 78/7/66 96/20/66 90/18/66 73/4/66 
f 81/15/66 98/21/66 99/22/66 84/16/66 
s 1
f 88/17/49 103/17/49 104/1/49 89/1/49 
f 90/18/50 105/18/50 106/3/51 91/3/51 
f 92/10/52 107/10/52 108/19/52 93/19/52 
f 95/8/53 109/8/53 110/20/50 96/20/50 
s 2
f 89/1/54 104/1/54 111/11/54 97/11/54 
s 1
f 97/11/55 111/11/55 112/21/56 98/21/56 
f 99/22/57 113/22/57 114/14/58 100/14/58 
s 2
f 100/14/59 114/14/59 107/10/59 92/10/59 
s 1
f 91/3/51 106/3/51 115/23/60 101/23/60 
f 102/24/61 116/24/61 109/8/53 95/8/53 
s 2
f 101/23/62 115/23/62 103/17/62 88/17/62 
f 93/19/63 108/19/63 116/24/63 102/24/63 
s 1
f 96/20/50 110/20/50 105/18/50 90/18/50 
f 98/21/56 112/21/56 113/22/57 99/22/57 
s 4
f 104/1/47 103/17/47 115/23/47 106/3/48 105/18/48 110/20/46 109/8/47 116/24/47 108/19/47 107/10/2 114/14/46 113/22/48 112/21/48 111/11/46 
s 1
f 67/25/72 80/11/88 82/29/91 68/26/73 
f 69/27/74 83/30/92 86/14/95 70/28/75 
f 83/30/92 69/27/74 68/26/73 82/29/91 
# 93 polygons - 4 triangles

